# xmcd
#
# Track frame offsets:
#	150
#	23144
#	46089
#	70511
#	85633
#	101828
#	128697
#	164453
#	190881
#	213840
#	228875
#	254694
#
# Disc length: 3699 seconds
#
# Revision: 0
# Processed by: cddbd v1.5PL3 Copyright (c) Steve Scherf et al.
# Submitted via: dBpowerAMP V4.0
#
DISCID=950e710c
DTITLE=頌恩旋律 - 神馳天地
DYEAR=2001
DGENRE=Gospel
TTITLE0=神馳天地
TTITLE1=重回你話語中
TTITLE2=擁抱你的世界
TTITLE3=絲絲暖意
TTITLE4=盡意傾心
TTITLE5=未完的故事 - 人子
TTITLE6=未完的故事 - 君王
TTITLE7=未完的故事 - 彌賽亞
TTITLE8=星空下的愛
TTITLE9=浩瀚神恩
TTITLE10=新的歲月
TTITLE11=頌恩旋律
EXTD=
EXTT0=
EXTT1=
EXTT2=
EXTT3=
EXTT4=
EXTT5=
EXTT6=
EXTT7=
EXTT8=
EXTT9=
EXTT10=
EXTT11=
PLAYORDER=
